<svg xmlns="http://www.w3.org/2000/svg" viewBox="0 0 100 100">
  <circle cx="50" cy="50" r="45" fill="#FFD700" stroke="#FFA500" stroke-width="2"/>
  <circle cx="50" cy="50" r="35" fill="#FFEB3B"/>
  <circle cx="50" cy="50" r="25" fill="#FFF176"/>
  <circle cx="50" cy="50" r="15" fill="#FFEE58"/>
  <circle cx="50" cy="50" r="8" fill="#FFF59D"/>
  
  <!-- Sun rays -->
  <g fill="#FFD700">
    <!-- Top ray -->
    <rect x="48" y="5" width="4" height="15" rx="2"/>
    <!-- Top-right ray -->
    <rect x="75" y="20" width="4" height="12" rx="2" transform="rotate(45 77 26)"/>
    <!-- Right ray -->
    <rect x="80" y="48" width="15" height="4" rx="2"/>
    <!-- Bottom-right ray -->
    <rect x="75" y="68" width="4" height="12" rx="2" transform="rotate(-45 77 74)"/>
    <!-- Bottom ray -->
    <rect x="48" y="80" width="4" height="15" rx="2"/>
    <!-- Bottom-left ray -->
    <rect x="21" y="68" width="4" height="12" rx="2" transform="rotate(45 23 74)"/>
    <!-- Left ray -->
    <rect x="5" y="48" width="15" height="4" rx="2"/>
    <!-- Top-left ray -->
    <rect x="21" y="20" width="4" height="12" rx="2" transform="rotate(-45 23 26)"/>
  </g>
  
  <!-- Face -->
  <g fill="#333">
    <!-- Eyes -->
    <circle cx="40" cy="40" r="3"/>
    <circle cx="60" cy="40" r="3"/>
    <!-- Smile -->
    <path d="M 35 55 Q 50 65 65 55" stroke="#333" stroke-width="2" fill="none"/>
  </g>
</svg>
